<?xml version="1.0" standalone="no"?>
<!DOCTYPE svg PUBLIC "-//W3C//DTD SVG 20010904//EN"
 "http://www.w3.org/TR/2001/REC-SVG-20010904/DTD/svg10.dtd">
<svg version="1.0" xmlns="http://www.w3.org/2000/svg"
 width="500.000000pt" height="500.000000pt" viewBox="0 0 500.000000 500.000000"
 preserveAspectRatio="xMidYMid meet">

<g transform="translate(0.000000,500.000000) scale(0.100000,-0.100000)"
fill="#000000" stroke="none">
<path d="M2400 4394 c-14 -2 -59 -9 -100 -15 -179 -26 -409 -99 -581 -185
-524 -262 -889 -742 -1001 -1319 -20 -105 -23 -150 -23 -355 0 -267 18 -395
82 -590 43 -132 155 -361 225 -462 129 -186 326 -379 514 -504 302 -201 683
-314 1059 -314 603 0 1153 268 1522 740 171 220 300 524 352 829 26 154 29
426 6 571 -98 612 -445 1097 -996 1394 -170 91 -422 171 -637 200 -101 14
-352 20 -422 10z m-165 -505 c0 -30 -3 -34 -28 -37 -55 -6 -79 51 -35 82 32
23 63 1 63 -45z m753 45 c26 -18 30 -69 6 -78 -46 -18 -84 1 -84 40 0 20 32
54 50 54 3 0 16 -7 28 -16z m-255 -133 c149 -78 535 -279 722 -376 334 -173
369 -202 399 -327 6 -27 6 -27 -21 -16 -16 7 -84 40 -153 74 -840 421 -1095
544 -1114 538 -12 -3 -299 -145 -640 -315 -340 -170 -620 -309 -622 -309 -8 0
8 54 31 106 12 28 35 60 51 71 33 23 338 193 347 193 4 0 66 33 140 74 73 40
182 98 242 128 61 30 166 85 235 123 220 120 222 120 383 36z m-789 -34 c13
-36 -2 -61 -38 -65 -35 -4 -56 13 -56 47 0 36 19 53 55 49 22 -2 32 -10 39
-31z m1360 0 c13 -36 -2 -61 -37 -65 -36 -4 -62 35 -47 72 8 23 15 27 42 24
25 -2 35 -9 42 -31z m-1666 -139 c21 -21 15 -67 -12 -79 -36 -17 -66 3 -66 45
0 18 3 36 7 39 11 11 58 8 71 -5z m1950 0 c30 -30 5 -89 -35 -82 -7 1 -18 2
-23 3 -20 2 -33 47 -21 70 13 23 59 29 79 9z m-789 -263 c12 -11 3 -19 -59
-50 -70 -35 -74 -36 -120 -24 -62 16 -111 3 -177 -48 -26 -20 -206 -114 -398
-208 l-351 -172 -97 37 -98 36 538 271 538 270 105 -49 c58 -27 111 -55 119
-63z m-1284 -668 c77 -35 175 -81 218 -100 l77 -36 0 -175 c0 -139 -3 -176
-13 -176 -26 0 -193 119 -260 186 -38 37 -91 101 -119 142 -47 70 -108 204
-108 238 0 17 -4 18 205 -79z m2335 76 c-1 -30 -54 -146 -101 -219 -83 -127
-240 -273 -361 -335 l-38 -19 0 184 0 184 93 41 c50 22 160 72 242 110 83 39
153 71 158 71 4 0 7 -8 7 -17z m258 -53 c18 -11 37 -32 43 -46 5 -15 8 -88 7
-163 l-3 -136 -110 0 -110 0 -3 148 -3 148 35 35 c41 41 92 46 144 14z m-2948
-101 c46 -26 70 -66 70 -116 0 -78 -58 -133 -139 -133 -117 0 -180 125 -109
216 43 54 116 68 178 33z m2862 -294 c9 2 19 -4 22 -12 4 -9 1 -12 -7 -8 -6 4
-3 -1 7 -9 15 -12 16 -16 5 -16 -8 0 -28 14 -45 32 -16 18 -22 27 -14 21 8 -6
23 -9 32 -8z m-1976 -20 c31 -14 60 -22 65 -19 5 3 18 0 30 -6 30 -17 113 -22
144 -10 28 11 49 5 28 -8 -6 -4 50 -8 125 -10 76 -1 138 2 141 7 4 6 27 5 61
-1 39 -7 70 -7 109 2 43 10 55 10 62 -1 6 -10 17 -11 56 -2 26 7 71 14 98 17
45 5 153 33 197 51 14 6 16 -4 15 -91 l-2 -97 -95 -54 c-121 -69 -173 -93
-290 -134 -88 -31 -104 -33 -215 -33 -112 0 -127 3 -222 36 -92 33 -239 105
-335 165 l-38 23 0 95 c0 52 2 95 5 95 2 0 30 -11 61 -25z m1883 -192 c50 -59
91 -113 91 -121 0 -49 -43 -64 -123 -41 -22 6 -41 8 -44 6 -2 -3 8 -27 24 -55
24 -43 26 -53 15 -76 -8 -18 -19 -26 -36 -26 -44 0 -286 62 -301 77 -33 33 -5
93 44 93 14 0 50 -7 79 -14 l53 -15 -17 27 c-9 15 -23 36 -31 47 -16 24 -17
67 -1 83 15 15 57 16 94 2 37 -14 39 -8 9 28 -41 49 -29 92 26 92 22 0 44 -20
118 -107z m-2424 67 c28 -31 13 -56 -95 -155 -52 -49 -96 -91 -98 -95 -1 -3
22 -39 53 -80 30 -40 55 -78 55 -85 0 -22 -32 -55 -53 -55 -24 0 -67 41 -149
140 -64 77 -67 93 -26 133 54 53 218 201 231 209 22 14 64 8 82 -12z m2102
-394 c124 -60 154 -89 135 -131 -12 -25 -51 -41 -76 -32 -9 4 -19 -9 -31 -41
-27 -71 -50 -92 -103 -92 -35 0 -49 6 -73 29 -43 44 -41 98 7 150 34 39 35 40
15 51 -16 8 -21 8 -21 -1 0 -19 -31 -49 -51 -49 -46 0 -67 83 -31 126 47 59
90 57 229 -10z m-1922 21 c85 -48 103 -185 31 -233 -35 -22 -64 -13 -131 41
-53 43 -55 44 -55 21 0 -30 21 -52 66 -71 26 -11 34 -20 34 -39 0 -56 -84 -58
-146 -4 -44 39 -64 77 -64 122 0 137 148 229 265 163z m1637 -124 c32 -29 23
-70 -22 -101 -21 -15 -39 -31 -40 -35 0 -5 21 -47 46 -93 34 -63 44 -91 40
-110 -9 -33 -51 -50 -80 -30 -28 18 -156 247 -156 279 0 31 21 49 59 51 19 1
37 11 51 29 25 32 73 37 102 10z m-1361 -36 c19 -12 42 -39 52 -59 18 -37 18
-37 -17 -164 -20 -71 -39 -131 -44 -135 -4 -4 -16 -10 -28 -13 -26 -8 -74 27
-74 55 0 15 -7 19 -39 19 -80 0 -126 40 -124 107 2 67 66 107 146 92 27 -5 53
-12 59 -15 6 -4 8 1 6 12 -2 14 -14 20 -46 22 -35 3 -45 8 -55 29 -10 23 -8
28 16 49 37 32 101 33 148 1z m1021 -49 c60 -18 114 -76 134 -144 36 -124 -29
-233 -167 -282 -71 -25 -122 -28 -136 -9 -13 16 -113 350 -113 375 0 28 19 40
86 56 74 18 145 19 196 4z m-800 -47 c10 -13 25 -18 55 -17 76 2 115 -73 57
-110 -22 -15 -31 -16 -60 -5 -48 17 -56 8 -90 -97 -37 -116 -56 -136 -109
-116 -40 16 -38 51 11 196 25 76 52 145 61 153 20 21 59 19 75 -4z m290 -68
c13 -16 40 -50 59 -77 l34 -49 5 62 c5 65 17 81 57 81 47 0 53 -20 53 -178 0
-165 -8 -192 -59 -192 -32 0 -51 19 -113 113 -50 74 -58 73 -58 -12 0 -59 -21
-91 -60 -91 -40 0 -60 32 -55 84 20 191 29 244 41 264 20 31 64 29 96 -5z"/>
<path d="M1062 2538 c-20 -20 -14 -66 9 -79 33 -17 69 3 69 39 0 33 -16 52
-45 52 -12 0 -26 -5 -33 -12z"/>
<path d="M3547 1632 c-21 -23 -22 -52 -2 -52 16 0 48 54 38 64 -10 10 -19 7
-36 -12z"/>
<path d="M1582 1731 c-10 -6 -6 -15 19 -35 31 -26 49 -30 56 -10 9 27 -49 62
-75 45z"/>
<path d="M1795 1459 c-4 -6 -1 -15 6 -20 21 -14 64 -6 64 11 0 18 -60 26 -70
9z"/>
<path d="M2847 1493 c-20 -5 -21 0 21 -130 14 -46 30 -83 34 -83 20 0 88 42
98 59 36 68 -21 162 -96 160 -22 -1 -47 -3 -57 -6z"/>
</g>
</svg>
